<svg version="1.1" id="Warstwa_1" xmlns="http://www.w3.org/2000/svg" xmlns:xlink="http://www.w3.org/1999/xlink" x="0px" y="0px" viewBox="0 0 1417.3 1417.3" style="enable-background:new 0 0 1417.3 1417.3;" xml:space="preserve" _ngcontent-ng-c2355173600="" aria-hidden="true">
		<style _ngcontent-ng-c2355173600="">
			.contour {
        fill: none;
        stroke: transparent;
        stroke-width: 1px;
      }
        </style>
  <path class="punching-die" d="M0,0v1417.3h1417.3V0H0z M1297.4,631.8c-79.9,341.9-552.9,603.9-588.8,622.2
	c-35.8-18.3-508.8-280.3-588.8-622.2c-15.6-66.8-35-197.2,38.6-310.4c8.7-13.4,46.5-66.2,116.5-108.1
	c100-59.9,288.3-99.4,433.7,112.3c145.5-211.8,333.7-172.2,433.7-112.3c70,41.9,107.8,94.8,116.5,108.1
	C1332.4,434.5,1313,565,1297.4,631.8z" _ngcontent-ng-c2355173600=""></path>
  <path class="contour" d="M1297.4,631.8c-79.9,341.9-552.9,603.9-588.8,622.2c-35.8-18.3-508.8-280.3-588.8-622.2
	c-15.6-66.8-35-197.2,38.6-310.4c8.7-13.4,46.5-66.2,116.5-108.1c100-59.9,288.3-99.4,433.7,112.3
	c145.5-211.8,333.7-172.2,433.7-112.3c70,41.9,107.8,94.8,116.5,108.1C1332.4,434.5,1313,565,1297.4,631.8z" _ngcontent-ng-c2355173600=""></path>
</svg>
